<svg xmlns="http://www.w3.org/2000/svg" width="24" height="24" viewBox="0 0 24 24">
    <g fill="none" fill-rule="evenodd">
        <path d="M0 0h24v24H0z"/>
        <path fill="#BBB9B9" d="M20.07 17.379c.287.315.43.687.43 1.117 0 .43-.143.788-.43 1.074-.286.287-.644.43-1.074.43-.43 0-.802-.143-1.117-.43l-5.629-5.629-5.629 5.63a1.553 1.553 0 0 1-2.148 0A1.391 1.391 0 0 1 4 18.495c0-.43.158-.802.473-1.117l5.586-5.629-5.586-5.629A1.527 1.527 0 0 1 4 5.004c0-.43.158-.788.473-1.074a1.553 1.553 0 0 1 2.148 0l5.629 5.629 5.629-5.63c.315-.286.687-.429 1.117-.429.43 0 .788.143 1.074.43.287.286.43.644.43 1.074 0 .43-.143.802-.43 1.117l-5.629 5.629 5.63 5.629z"/>
    </g>
</svg>
